<svg width="102" height="108" viewBox="0 0 102 108" fill="none" xmlns="http://www.w3.org/2000/svg" xmlns:xlink="http://www.w3.org/1999/xlink">
<path d="M11.009,88.538L40.519,0.309L61.619,0.309L92.256,88.989C96.561,90.541 99.564,92.343 101.266,94.395L99.764,107.161L63.797,107.161L62.22,94.395C63.471,92.793 65.949,91.267 69.654,89.815L65.449,76.9L34.737,76.9L30.833,89.289C34.437,90.741 37.115,92.443 38.867,94.395L37.29,107.161L2.224,107.161L0.722,94.395C2.624,92.043 6.053,90.09 11.009,88.538ZM51.182,24.412L51.032,21.784L48.854,21.784C48.854,27.991 47.577,35.275 45.024,43.635L39.017,62.708L61.018,62.708L55.161,43.935C52.809,36.727 51.482,30.219 51.182,24.412Z" transform="rotate(-0.111 50.994 53.735)" fill="#000000"/>
</svg>
