<svg width="102" height="108" viewBox="0 0 102 108" fill="none" xmlns="http://www.w3.org/2000/svg" xmlns:xlink="http://www.w3.org/1999/xlink">
<path d="M10.139,88.142L39.649,-0.087L60.749,-0.087L91.385,88.593C95.69,90.145 98.694,91.947 100.396,93.999L98.894,106.765L62.927,106.765L61.35,93.999C62.601,92.397 65.079,90.871 68.784,89.419L64.579,76.504L33.867,76.504L29.962,88.893C33.567,90.345 36.245,92.047 37.997,93.999L36.42,106.765L1.353,106.765L-0.148,93.999C1.754,91.647 5.183,89.694 10.139,88.142ZM50.312,24.016L50.161,21.388L47.984,21.388C47.984,27.595 46.707,34.879 44.154,43.239L38.147,62.312L60.148,62.312L54.291,43.539C51.938,36.331 50.612,29.823 50.312,24.016Z" transform="rotate(24.422 50.124 53.339)" fill="#000000"/>
</svg>
