<svg width="198" height="232" viewBox="0 0 198 232" fill="none" xmlns="http://www.w3.org/2000/svg" xmlns:xlink="http://www.w3.org/1999/xlink">
<path d="M73.889,29.739C70.385,28.838 66.756,28.387 63.001,28.387C59.197,28.387 56.143,29.313 53.84,31.165C51.487,33.068 50.311,35.746 50.311,39.2C50.311,42.654 51.187,45.357 52.939,47.31C54.691,49.212 58.12,50.889 63.226,52.341L76.968,56.32C84.327,58.473 90.183,61.852 94.539,66.457C98.894,71.013 101.071,77.696 101.071,86.506C101.071,93.465 99.344,99.472 95.89,104.528C92.436,109.584 87.731,113.488 81.773,116.242C75.866,118.945 69.184,120.296 61.725,120.296C55.567,120.296 49.235,119.521 42.727,117.969C36.219,116.367 30.813,114.139 26.508,111.286L26.508,107.681C26.508,106.53 26.658,104.778 26.958,102.425C27.309,100.072 27.784,97.619 28.385,95.066C29.036,92.463 29.787,90.261 30.638,88.459L45.28,88.459C46.932,91.712 47.908,95.968 48.209,101.224C51.663,102.776 55.843,103.552 60.748,103.552C65.504,103.552 69.409,102.425 72.462,100.173C75.566,97.92 77.118,94.691 77.118,90.486C77.118,88.484 76.968,86.857 76.667,85.605C76.367,84.304 75.416,82.927 73.814,81.475C72.212,80.024 69.934,78.822 66.981,77.871L51.137,73.291C35.018,68.735 26.958,58.473 26.958,42.504C26.958,36.297 28.485,30.89 31.539,26.285C34.643,21.679 38.948,18.1 44.454,15.547C49.961,12.994 56.368,11.717 63.677,11.717C74.64,11.717 85.328,14.195 95.74,19.151L95.74,22.68C95.74,23.832 95.565,25.609 95.214,28.012C94.914,30.365 94.439,32.817 93.788,35.371C93.187,37.924 92.436,40.101 91.535,41.903L76.968,41.903C75.216,39.4 74.189,35.345 73.889,29.739Z" transform="rotate(86.553 63.79 66.007)" fill="#000000"/>
<path d="M166.915,214.046L166.915,183.335L133.125,183.335L133.125,214.046C137.08,215.648 139.883,217.35 141.535,219.152L140.033,231.917L103.99,231.917L102.489,219.152C103.84,217.4 106.669,215.698 110.974,214.046L110.974,143.763C106.719,142.261 103.89,140.534 102.489,138.581L103.99,125.816L140.033,125.816L141.535,138.581C139.883,140.534 137.08,142.261 133.125,143.763L133.125,167.941L166.915,167.941L166.915,143.763C162.66,142.261 159.832,140.534 158.43,138.581L160.007,125.816L195.975,125.816L197.552,138.581C195.9,140.534 193.071,142.261 189.066,143.763L189.066,214.046C193.071,215.648 195.9,217.35 197.552,219.152L195.975,231.917L160.007,231.917L158.43,219.152C159.782,217.4 162.61,215.698 166.915,214.046Z" transform="rotate(130.034 150.02 178.867)" fill="#000000"/>
</svg>
