<svg width="190" height="216" viewBox="0 0 190 216" fill="none" xmlns="http://www.w3.org/2000/svg" xmlns:xlink="http://www.w3.org/1999/xlink">
<path d="M28.979,113.857L30.48,101.092L100.614,101.092L100.614,127.824L89.275,129.251C86.872,127.198 84.97,123.394 83.568,117.837L59.615,117.837L59.615,145.845L80.94,145.845C82.242,142.742 83.518,140.589 84.77,139.388L94.456,140.439L94.456,167.847L84.77,169.048C83.518,168.097 82.242,165.944 80.94,162.59L59.615,162.59L59.615,188.121C66.473,189.672 71.429,191.775 74.483,194.428L72.981,207.193L30.48,207.193L28.979,194.428C30.33,192.676 33.159,190.974 37.464,189.322L37.464,119.039C33.209,117.537 30.38,115.81 28.979,113.857Z" transform="rotate(-105.051 64.796 154.143)" fill="#000000"/>
<path d="M177.059,78.512L188.398,79.939L188.398,106.67L117.964,106.67L116.462,93.905C117.814,92.153 120.642,90.451 124.947,88.799L124.947,18.516C120.692,17.014 117.864,15.287 116.462,13.335L117.964,0.569L154.007,0.569L155.509,13.335C153.857,15.287 151.053,17.014 147.099,18.516L147.099,89.926L171.352,89.926C172.704,84.519 174.606,80.715 177.059,78.512Z" transform="rotate(-63.792 152.43 53.62)" fill="#000000"/>
</svg>
