<svg width="74" height="106" viewBox="0 0 74 106" fill="none" xmlns="http://www.w3.org/2000/svg" xmlns:xlink="http://www.w3.org/1999/xlink">
<path d="M60.799,77.275L72.212,78.702L72.212,105.434L0.802,105.434L-0.699,92.669C0.652,90.916 3.48,89.214 7.786,87.562L7.786,17.279C3.531,15.777 0.702,14.05 -0.699,12.098L0.802,-0.667L70.936,-0.667L70.936,26.064L59.597,27.491C57.194,25.439 55.292,21.634 53.89,16.078L29.937,16.078L29.937,42.509L51.262,42.509C52.514,39.505 53.79,37.353 55.092,36.051L64.778,37.178L64.778,64.51L55.092,65.787C53.84,64.735 52.564,62.583 51.262,59.329L29.937,59.329L29.937,88.689L55.092,88.689C56.444,83.282 58.346,79.478 60.799,77.275Z" transform="rotate(-124.397 35.756 52.383)" fill="#000000"/>
</svg>
