<svg width="76" height="108" viewBox="0 0 76 108" fill="none" xmlns="http://www.w3.org/2000/svg" xmlns:xlink="http://www.w3.org/1999/xlink">
<path d="M48.289,17.025C44.785,16.124 41.155,15.673 37.401,15.673C33.596,15.673 30.543,16.599 28.24,18.452C25.887,20.354 24.711,23.032 24.711,26.486C24.711,29.94 25.587,32.643 27.339,34.596C29.091,36.498 32.52,38.175 37.626,39.627L51.367,43.606C58.726,45.759 64.583,49.138 68.938,53.743C73.293,58.299 75.471,64.982 75.471,73.792C75.471,80.751 73.744,86.758 70.29,91.814C66.836,96.87 62.13,100.774 56.173,103.528C50.266,106.231 43.583,107.582 36.124,107.582C29.967,107.582 23.634,106.807 17.127,105.255C10.619,103.653 5.212,101.425 0.907,98.572L0.907,94.967C0.907,93.816 1.058,92.064 1.358,89.711C1.708,87.358 2.184,84.905 2.785,82.352C3.435,79.749 4.186,77.547 5.037,75.745L19.68,75.745C21.332,78.998 22.308,83.254 22.608,88.51C26.062,90.062 30.242,90.838 35.148,90.838C39.904,90.838 43.808,89.711 46.862,87.459C49.966,85.206 51.518,81.977 51.518,77.772C51.518,75.77 51.367,74.143 51.067,72.891C50.767,71.59 49.816,70.213 48.214,68.761C46.612,67.31 44.334,66.108 41.38,65.157L25.537,60.577C9.417,56.021 1.358,45.759 1.358,29.79C1.358,23.583 2.885,18.176 5.938,13.571C9.042,8.965 13.347,5.386 18.854,2.833C24.36,0.28 30.768,-0.997 38.077,-0.997C49.04,-0.997 59.727,1.481 70.14,6.437L70.14,9.966C70.14,11.118 69.964,12.895 69.614,15.298C69.314,17.651 68.838,20.103 68.187,22.657C67.587,25.21 66.836,27.387 65.935,29.189L51.367,29.189C49.615,26.686 48.589,22.631 48.289,17.025Z" transform="rotate(104.442 38.189 53.293)" fill="#000000"/>
</svg>
